# File created by Blade
# Date/Time:  Wed Jan 21 16:20:01 2015
# Frame Rate: 120.000 fps
#------------------------------------------------------
:FULLY-SPECIFIED
:DEGREES
663
root 13.330781 35.943711 -19.900210 -191.192338 -54.770852 -181.806799
Spine 7.069188 -44.674071 -7.593446
Head 46.572243 -46.008085 -20.380264
LeftShoulder -9.022321 -22.175811 -0.183788
LeftArm -17.128192 38.086980 -65.831109
LeftForeArm 35.630524 -0.000000 70.709687
LeftHand -2.940527 -0.000000 -27.176414
LeftHandThumb1 -26.253704 0.000000 33.147579
RightShoulder -18.638161 -12.321340 -2.212512
RightArm -29.790022 46.260755 25.743752
RightForeArm -5.133767 0.000000 14.479334
RightHand -5.689040 -0.000000 -2.941173
RightHandThumb1 -24.326973 -0.000000 -32.862282
LeftUpLeg 22.098702 -22.102453 -14.562837
LeftLeg -11.809178 -0.000000 0.000000
LeftFoot 2.976505 7.861393 -0.780450
LeftToeBase -159.494923 -0.000000 0.000000
RightUpLeg -72.089582 35.556276 15.707836
RightLeg 117.591095 -0.000000 -0.000000
RightFoot 28.075743 -20.127293 -16.370030
RightToeBase 23.213231 -0.000000 -0.000000
664
root 13.307121 35.935824 -19.897291 -191.096204 -54.861494 -181.937436
Spine 6.757458 -44.679981 -7.427770
Head 46.986835 -46.317402 -20.924862
LeftShoulder -9.121623 -22.150511 -0.205870
LeftArm -17.179532 38.070187 -65.933718
LeftForeArm 35.874653 0.000000 70.660210
LeftHand -2.865186 -0.000000 -27.251540
LeftHandThumb1 -26.253704 0.000000 33.147579
RightShoulder -18.549365 -12.242344 -2.392086
RightArm -30.001202 46.309186 25.493188
RightForeArm -4.617820 -0.000000 14.112855
RightHand -5.985270 -0.000000 -3.476729
RightHandThumb1 -24.326973 -0.000000 -32.862282
LeftUpLeg 22.138645 -22.269642 -14.730274
LeftLeg -11.755902 -0.000000 0.000000
LeftFoot 2.924264 7.883798 -0.759528
LeftToeBase -159.920167 -0.000000 0.000000
RightUpLeg -72.059426 35.603573 15.742654
RightLeg 117.682335 -0.000000 -0.000000
RightFoot 28.043017 -20.043226 -16.577281
RightToeBase 23.924534 -0.000000 -0.000000
665
root 13.284942 35.925480 -19.892840 -190.984853 -54.925471 -182.069312
Spine 6.420938 -44.656021 -7.234223
Head 47.524400 -46.688904 -21.637458
LeftShoulder -9.209990 -22.154787 -0.242687
LeftArm -17.269285 38.077851 -66.042639
LeftForeArm 36.217733 0.000000 70.635971
LeftHand -2.803255 -0.000000 -27.400386
LeftHandThumb1 -26.253704 0.000000 33.147579
RightShoulder -18.485329 -12.227288 -2.548463
RightArm -30.146298 46.516924 25.291130
RightForeArm -4.366728 -0.000000 13.784562
RightHand -6.213532 -0.000000 -3.915948
RightHandThumb1 -24.326973 -0.000000 -32.862282
LeftUpLeg 22.167585 -22.463459 -14.908913
LeftLeg -11.705023 -0.000000 0.000000
LeftFoot 2.861290 7.986478 -0.713222
LeftToeBase -160.443485 -0.000000 0.000000
RightUpLeg -72.048682 35.666920 15.776752
RightLeg 117.768390 -0.000000 -0.000000
RightFoot 28.091420 -20.100814 -16.522254
RightToeBase 23.905651 -0.000000 -0.000000
666
root 13.260591 35.911629 -19.887208 -190.859486 -54.975599 -182.199940
Spine 6.049009 -44.628608 -6.996775
Head 47.915914 -46.990210 -22.216082
LeftShoulder -9.257598 -22.190301 -0.290404
LeftArm -17.456444 38.046145 -66.232116
LeftForeArm 36.531569 -0.000000 70.616217
LeftHand -2.748577 0.000000 -27.365886
LeftHandThumb1 -26.253704 0.000000 33.147579
RightShoulder -18.371702 -12.132263 -2.699257
RightArm -30.245722 46.375824 25.181194
RightForeArm -3.867876 -0.000000 13.472754
RightHand -6.339704 -0.000000 -4.328307
RightHandThumb1 -24.326973 -0.000000 -32.862282
LeftUpLeg 22.210958 -22.721362 -15.115625
LeftLeg -11.688734 -0.000000 0.000000
LeftFoot 2.801037 8.181344 -0.610266
LeftToeBase -161.008965 -0.000000 0.000000
RightUpLeg -72.052381 35.732227 15.805206
RightLeg 117.860554 -0.000000 -0.000000
RightFoot 28.143574 -20.114589 -16.521498
RightToeBase 23.952783 -0.000000 -0.000000
667
root 13.236342 35.894236 -19.877541 -190.665942 -55.008516 -182.381929
Spine 5.629583 -44.589789 -6.747061
Head 48.293227 -47.300138 -22.790209
LeftShoulder -9.311625 -22.230856 -0.329613
LeftArm -17.657022 38.015684 -66.437890
LeftForeArm 36.839305 -0.000000 70.598423
LeftHand -2.709804 0.000000 -27.372655
LeftHandThumb1 -26.253704 0.000000 33.147579
RightShoulder -18.306139 -12.064242 -2.848533
RightArm -30.290203 46.379053 25.129785
RightForeArm -3.783868 0.000000 13.303914
RightHand -6.603656 -0.000000 -4.730970
RightHandThumb1 -24.326973 -0.000000 -32.862282
LeftUpLeg 22.225651 -23.010126 -15.361935
LeftLeg -11.672331 -0.000000 0.000000
LeftFoot 2.758375 8.483547 -0.468741
LeftToeBase -161.299524 -0.000000 0.000000
RightUpLeg -72.087413 35.791845 15.801452
RightLeg 117.966430 -0.000000 -0.000000
RightFoot 28.193556 -20.186669 -16.446662
RightToeBase 23.559485 -0.000000 -0.000000
668
root 13.206704 35.877010 -19.885108 -190.574240 -54.954470 -182.478793
Spine 5.180714 -44.480226 -6.421857
Head 48.693824 -47.563833 -23.426655
LeftShoulder -9.400394 -22.190778 -0.407428
LeftArm -17.791857 37.952938 -66.596010
LeftForeArm 37.169751 0.000000 70.590380
LeftHand -2.621498 -0.000000 -27.410262
LeftHandThumb1 -26.253704 0.000000 33.147579
RightShoulder -18.287070 -12.148601 -2.951791
RightArm -30.126612 46.486559 25.178397
RightForeArm -3.881268 -0.000000 13.087007
RightHand -6.836690 -0.000000 -5.008567
RightHandThumb1 -24.326973 -0.000000 -32.862282
LeftUpLeg 22.338704 -23.234968 -15.562758
LeftLeg -11.747904 -0.000000 0.000000
LeftFoot 2.721407 8.899204 -0.331538
LeftToeBase -161.549735 -0.000000 0.000000
RightUpLeg -72.006296 35.948789 15.947153
RightLeg 118.052927 -0.000000 -0.000000
RightFoot 28.190833 -20.233936 -16.495144
RightToeBase 24.078729 -0.000000 -0.000000
669
root 13.188588 35.854077 -19.869405 -190.363994 -54.975274 -182.676292
Spine 4.818770 -44.453014 -6.220275
Head 48.932504 -47.849154 -23.850748
LeftShoulder -9.466839 -22.184238 -0.449478
LeftArm -17.902603 37.867081 -66.731189
LeftForeArm 37.500469 -0.000000 70.592087
LeftHand -2.583279 -0.000000 -27.364398
LeftHandThumb1 -26.253704 0.000000 33.147579
RightShoulder -18.146918 -11.926922 -3.041945
RightArm -30.236854 46.268436 25.089914
RightForeArm -3.843169 -0.000000 13.026018
RightHand -7.125879 0.000000 -5.079940
RightHandThumb1 -24.326973 -0.000000 -32.862282
LeftUpLeg 22.321573 -23.608340 -15.852112
LeftLeg -11.674483 -0.000000 0.000000
LeftFoot 2.632298 9.323692 -0.042941
LeftToeBase -161.602986 -0.000000 0.000000
RightUpLeg -72.051887 35.985998 15.932622
RightLeg 118.146748 -0.000000 -0.000000
RightFoot 28.233556 -20.224732 -16.621456
RightToeBase 24.336506 -0.000000 -0.000000
